<svg width="368" height="298" viewBox="0 0 368 298" fill="none" xmlns="http://www.w3.org/2000/svg">
<path d="M180.003 14.2536V5.33289C180.002 4.86582 179.903 4.40406 179.713 3.9775C179.523 3.55094 179.245 3.16908 178.898 2.85662C178.551 2.54416 178.142 2.30807 177.698 2.16361C177.253 2.01915 176.784 1.96955 176.319 2.01801C102.556 10.3752 45.2598 72.9897 45.2598 149H36.3354C35.8673 148.997 35.4039 149.093 34.9757 149.283C34.5474 149.472 34.1641 149.749 33.851 150.097C33.5378 150.445 33.3019 150.856 33.1587 151.301C33.0156 151.747 32.9685 152.218 33.0205 152.683C41.3925 226.447 104.007 283.746 180.014 283.746V292.667C180.014 293.134 180.113 293.596 180.303 294.022C180.493 294.449 180.771 294.831 181.118 295.143C181.465 295.456 181.874 295.692 182.318 295.836C182.763 295.981 183.232 296.03 183.697 295.982C257.453 287.621 314.742 225.007 314.742 149H323.662C324.13 149.003 324.594 148.907 325.022 148.717C325.45 148.528 325.834 148.251 326.147 147.903C326.46 147.555 326.696 147.144 326.839 146.699C326.982 146.253 327.029 145.782 326.977 145.317C318.609 71.5532 255.991 14.2536 179.98 14.2536" fill="#FFB26E"/>
<mask id="mask0" mask-type="alpha" maskUnits="userSpaceOnUse" x="33" y="2" width="294" height="294">
<path d="M180.003 14.2536V5.33289C180.002 4.86582 179.903 4.40406 179.713 3.9775C179.523 3.55094 179.245 3.16908 178.898 2.85662C178.551 2.54416 178.142 2.30807 177.698 2.16361C177.253 2.01915 176.784 1.96955 176.319 2.01801C102.556 10.3752 45.2598 72.9897 45.2598 149H36.3354C35.8673 148.997 35.4039 149.093 34.9757 149.283C34.5474 149.472 34.1641 149.749 33.851 150.097C33.5378 150.445 33.3019 150.856 33.1587 151.301C33.0156 151.747 32.9685 152.218 33.0205 152.683C41.3925 226.447 104.007 283.746 180.014 283.746V292.667C180.014 293.134 180.113 293.596 180.303 294.022C180.493 294.449 180.771 294.831 181.118 295.143C181.465 295.456 181.874 295.692 182.318 295.836C182.763 295.981 183.232 296.03 183.697 295.982C257.453 287.621 314.742 225.007 314.742 149H323.662C324.13 149.003 324.594 148.907 325.022 148.717C325.45 148.528 325.834 148.251 326.147 147.903C326.46 147.555 326.696 147.144 326.839 146.699C326.982 146.253 327.029 145.782 326.977 145.317C318.609 71.5532 255.991 14.2536 179.98 14.2536" fill="#FFE84D"/>
</mask>
<g mask="url(#mask0)">
<path d="M180.003 14.2536V5.33289C180.002 4.86582 179.903 4.40406 179.713 3.9775C179.523 3.55094 179.245 3.16908 178.898 2.85662C178.551 2.54416 178.142 2.30807 177.698 2.16361C177.253 2.01915 176.784 1.96955 176.319 2.01801C102.556 10.3752 45.2598 72.9897 45.2598 149H36.3354C35.8673 148.997 35.4039 149.093 34.9757 149.283C34.5474 149.472 34.1641 149.749 33.851 150.097C33.5378 150.445 33.3019 150.856 33.1587 151.301C33.0156 151.747 32.9685 152.218 33.0205 152.683C41.3925 226.447 104.007 283.746 180.014 283.746V292.667C180.014 293.134 180.113 293.596 180.303 294.022C180.493 294.449 180.771 294.831 181.118 295.143C181.465 295.456 181.874 295.692 182.318 295.836C182.763 295.981 183.232 296.03 183.697 295.982C257.453 287.621 314.742 225.007 314.742 149H323.662C324.13 149.003 324.594 148.907 325.022 148.717C325.45 148.528 325.834 148.251 326.147 147.903C326.46 147.555 326.696 147.144 326.839 146.699C326.982 146.253 327.029 145.782 326.977 145.317C318.609 71.5532 255.991 14.2536 179.98 14.2536" fill="#FFB26E"/>
<path d="M63.7165 244.259L59.665 70.2642C59.6359 69.0408 59.9899 67.839 60.6773 66.8266C61.3648 65.8143 62.3514 65.042 63.4992 64.6178L177.524 22.4341L175.03 314.984L63.7165 244.259Z" fill="#FFB26E"/>
<path d="M62.1841 178.631L68.0035 79.9215C68.1325 77.7532 68.8115 75.6534 69.9766 73.8201C71.1417 71.9868 72.7544 70.4803 74.6628 69.4428L126.161 41.4504L59.5 66L62.1841 178.631Z" fill="white"/>
<path d="M63.7165 244.259L59.665 70.2642C59.6359 69.0408 59.9899 67.839 60.6773 66.8266C61.3648 65.8143 62.3514 65.042 63.4992 64.6178L177.524 22.4341L175.03 314.984L63.7165 244.259Z" stroke="black" stroke-width="1.2" stroke-linecap="round" stroke-linejoin="round"/>
<path d="M175.03 314.984L263.088 273.448V92.647C263.089 91.0053 262.711 89.3855 261.986 87.9128C261.26 86.4401 260.206 85.1539 258.904 84.1535L179.347 22.9865C178.95 22.6814 178.475 22.4936 177.977 22.4441C177.478 22.3947 176.976 22.4857 176.527 22.7067C176.077 22.9278 175.698 23.2702 175.433 23.6952C175.168 24.1202 175.027 24.6108 175.027 25.1117L175.03 314.984Z" fill="#FFB26E" stroke="black" stroke-width="1.2" stroke-linecap="round" stroke-linejoin="round"/>
<path d="M187.218 44.5885V302.94L253.95 270.818V95.5383L187.218 44.5885Z" fill="black"/>
<path d="M187.218 53.3103L247.858 97.9397V269.249L187.218 297.124" stroke="#FFB26E" stroke-width="1.2" stroke-linecap="round" stroke-linejoin="round"/>
<path d="M247.858 269.249L253.95 270.818" stroke="#FFB26E" stroke-width="1.2" stroke-linecap="round" stroke-linejoin="round"/>
<path d="M247.858 97.9397L253.95 95.5382" stroke="#FFB26E" stroke-width="1.2" stroke-linecap="round" stroke-linejoin="round"/>
<path d="M187.218 44.5885V302.94L253.95 270.818V95.5383L187.218 44.5885Z" stroke="black" stroke-width="1.2" stroke-linecap="round" stroke-linejoin="round"/>
<path d="M175.034 144.411L180.006 312.641L175.034 314.984V144.411Z" fill="black"/>
</g>
<path d="M180.003 14.2536V5.33289C180.002 4.86582 179.903 4.40406 179.713 3.9775C179.523 3.55094 179.245 3.16908 178.898 2.85662C178.551 2.54416 178.142 2.30807 177.698 2.16361C177.253 2.01915 176.784 1.96955 176.319 2.01801C102.556 10.3752 45.2598 72.9897 45.2598 149H36.3354C35.8673 148.997 35.4039 149.093 34.9757 149.283C34.5474 149.472 34.1641 149.749 33.851 150.097C33.5378 150.445 33.3019 150.856 33.1587 151.301C33.0156 151.747 32.9685 152.218 33.0205 152.683C41.3925 226.447 104.007 283.746 180.014 283.746V292.667C180.014 293.134 180.113 293.596 180.303 294.022C180.493 294.449 180.771 294.831 181.118 295.143C181.465 295.456 181.874 295.692 182.318 295.836C182.763 295.981 183.232 296.03 183.697 295.982C257.453 287.621 314.742 225.007 314.742 149H323.662C324.13 149.003 324.594 148.907 325.022 148.717C325.45 148.528 325.834 148.251 326.147 147.903C326.46 147.555 326.696 147.144 326.839 146.699C326.982 146.253 327.029 145.782 326.977 145.317C318.609 71.5532 255.991 14.2536 179.98 14.2536" stroke="white" stroke-width="2" stroke-linecap="round" stroke-linejoin="round"/>
<path d="M257.088 95.1701V263.342L329.268 294.91V53.3104L257.088 95.1701Z" fill="#FFB26E" stroke="black" stroke-width="1.2" stroke-linecap="round" stroke-linejoin="round"/>
<path d="M329.268 53.3104L334.992 57.8813V291.032L329.268 294.91V53.3104Z" fill="black" stroke="black" stroke-width="1.2" stroke-linecap="round" stroke-linejoin="round"/>
<path d="M269.317 111.321L314.951 89.4463L314.248 177.644L284.587 187.987L283.909 232.649L314.248 238.605V260.686L268.904 250.203V175.147L298.071 164.469L298.62 116.334L269.272 129.516L269.317 111.321Z" fill="white"/>
<path d="M238.72 233.714C238.72 233.714 249.085 248.981 264.842 250.075C284.499 251.434 298.532 241.743 309.331 229.559C320.13 217.375 322.69 213.994 323.036 212.392C323.441 210.513 320.13 211.559 316.252 214.259L312.377 216.959L303.791 204.915C303.791 204.915 308.867 194.348 308.867 192.547C308.867 190.746 306.561 189.685 301.869 197.578C297.176 205.471 293.029 216.528 279.924 222.359C266.819 228.189 261.438 214.329 261.438 214.329L238.72 233.714Z" fill="#FFB26E"/>
<path d="M309.139 191.954C305.825 194.532 293.799 210.815 293.799 210.815C293.799 210.815 302.679 194.889 304.963 192.9C307.246 190.911 307.746 190.709 308 191C308.26 191.398 308.996 191.501 309.139 191.954Z" fill="white"/>
<path d="M238.72 233.714C238.72 233.714 249.085 248.981 264.842 250.075C284.499 251.434 298.532 241.743 309.331 229.559C320.13 217.375 322.69 213.994 323.036 212.392C323.441 210.513 320.13 211.559 316.252 214.259L312.377 216.959L303.791 204.915C303.791 204.915 308.867 194.348 308.867 192.547C308.867 190.746 306.561 189.685 301.869 197.578C297.176 205.471 293.029 216.528 279.924 222.359C266.819 228.189 261.438 214.329 261.438 214.329L238.72 233.714Z" stroke="black" stroke-width="1.2" stroke-linecap="round" stroke-linejoin="round"/>
<path d="M84.4824 234.307L133.034 224.8C150.478 221.198 152.972 214.83 152.972 201.353V70.5994L108.666 86.8497V113.409L131.373 105.089V201.725L84.4824 212.72V234.307Z" fill="black"/>
<path d="M221.022 281.584L222.61 277.761" stroke="#FFB26E" stroke-width="1.2" stroke-linecap="round" stroke-linejoin="round"/>
<path d="M187.214 149C187.214 149 219.336 151.055 237.059 172.101C254.783 193.147 261.424 214.329 261.424 214.329C261.424 214.329 260.503 222.73 250.44 229.375C243.619 233.883 238.72 233.714 238.72 233.714L233.873 227.898C233.873 227.898 233.085 235.062 228.197 256.004C224.639 271.246 222.61 277.757 222.61 277.757C222.61 277.757 217.534 278.571 200.783 274.973C196.185 273.961 191.653 272.665 187.214 271.095V149Z" fill="white" stroke="black" stroke-width="1.2" stroke-linecap="round" stroke-linejoin="round"/>
<path d="M265.018 129.873C265.018 129.873 259.939 135.136 258.51 132.503C258.51 132.503 263.493 126.551 264.462 121.291C265.431 116.032 265.018 109.936 265.018 109.936C265.018 109.936 258.926 117.965 249.512 116.028C240.098 114.091 238.02 106.614 230.543 100.245C223.067 93.8772 208.577 93.0448 201.236 99.1405C193.896 105.236 189.56 113.542 191.498 126.002C193.435 138.462 199.943 153.829 223.91 155.077C247.877 156.326 255.807 147.674 259.49 144.138C265.114 138.735 265.018 129.873 265.018 129.873Z" fill="black" stroke="#FFB26E" stroke-width="1.2" stroke-linecap="round" stroke-linejoin="round"/>
<path d="M204.29 145.195C204.29 145.195 203.317 156.875 202.448 161.35C201.789 164.731 202.172 172.517 209.925 175.011C217.678 177.504 225.984 173.538 227.276 168.013C228.569 162.488 230.591 134.496 230.591 134.496" fill="#FFB26E"/>
<path d="M204.29 145.195C204.29 145.195 203.317 156.875 202.448 161.35C201.789 164.731 202.172 172.517 209.925 175.011C217.678 177.504 225.984 173.538 227.276 168.013C228.569 162.488 230.591 134.496 230.591 134.496" stroke="black" stroke-width="1.2" stroke-linecap="round" stroke-linejoin="round"/>
<path d="M229.951 137.258C229.951 137.258 236.687 134.764 236.871 130.057C237.055 125.35 231.347 127.936 231.347 127.936C231.347 127.936 226.455 128.58 219.807 119.166C213.159 109.752 214.433 104.676 214.433 104.676C210.059 106.786 206.405 110.143 203.932 114.323C200.102 120.923 196.64 131.122 201.354 144.411C207.568 161.954 221.663 150.551 223.14 148.518" fill="#FFB26E"/>
<path d="M213.048 105.476C213.048 105.476 205.822 114.013 203.472 124.51C199.877 140.47 201.73 146.311 201.73 146.311C201.73 146.311 196.316 135.28 200.908 121.078C205.395 107.144 213.048 105.476 213.048 105.476Z" fill="white"/>
<path d="M229.951 137.258C229.951 137.258 236.687 134.764 236.871 130.057C237.055 125.35 231.347 127.936 231.347 127.936C231.347 127.936 226.455 128.58 219.807 119.166C213.159 109.752 214.433 104.676 214.433 104.676C210.059 106.786 206.405 110.143 203.932 114.323C200.102 120.923 196.64 131.122 201.354 144.411C207.568 161.954 221.663 150.551 223.14 148.518" stroke="black" stroke-width="1.2" stroke-linecap="round" stroke-linejoin="round"/>
<path d="M213.704 120.091C213.704 120.091 211.03 115.752 209.181 117.413C207.332 119.074 209.181 124.809 209.181 124.809" fill="#FFB26E"/>
<path d="M213.704 120.091C213.704 120.091 211.03 115.752 209.181 117.413C207.332 119.074 209.181 124.809 209.181 124.809" stroke="black" stroke-width="1.2" stroke-linecap="round" stroke-linejoin="round"/>
<path d="M214.422 133.899C217 136.945 222.728 134.827 221.759 130.451Z" fill="#FFB26E"/>
<path d="M214.422 133.899C217 136.945 222.728 134.827 221.759 130.451" stroke="black" stroke-width="1.2" stroke-linecap="round" stroke-linejoin="round"/>
<path d="M237.059 202.285C237.059 202.285 234.326 223.994 233.722 228.635Z" fill="white"/>
<path d="M237.059 202.285C237.059 202.285 234.326 223.994 233.722 228.635" stroke="black" stroke-width="1.2" stroke-linecap="round" stroke-linejoin="round"/>
<path d="M300.561 206.668C300.561 206.668 307.854 196.609 309.791 194.392C311.729 192.175 312.782 191.475 313.795 191.935C314.808 192.396 314.222 196.053 310.808 202.701C309.486 205.279 306.241 210.101 306.241 210.101" fill="#FFB26E"/>
<path d="M314.244 193.526C310.996 195.202 301.198 205.791 301.198 205.791C301.198 205.791 310.716 192.392 311.961 191.795C313.206 191.199 313.349 190.871 313.802 191.931C314.041 192.433 314.191 192.973 314.244 193.526V193.526Z" fill="white"/>
<path d="M300.561 206.668C300.561 206.668 307.854 196.609 309.791 194.392C311.729 192.175 312.782 191.475 313.795 191.935C314.808 192.396 314.222 196.053 310.808 202.701C309.486 205.279 306.241 210.101 306.241 210.101" stroke="black" stroke-width="1.2" stroke-linecap="round" stroke-linejoin="round"/>
<path d="M303.942 209.287C303.942 209.287 310.23 200.414 312.167 198.2C314.104 195.987 316.329 193.74 317.29 194.3C319.228 195.431 317.268 199.747 313.854 206.392C312.532 208.97 309.942 213.545 309.942 213.545" fill="#FFB26E"/>
<path d="M304.69 208.237C304.69 208.237 312.686 198.13 316.219 196.675C317.15 196.307 317.78 197.618 317.78 197.618C317.78 197.618 318.937 193.814 317.29 194.303C315.644 194.793 312.756 196.227 311.5 199C310.244 201.773 304.69 208.237 304.69 208.237Z" fill="white"/>
<path d="M303.942 209.287C303.942 209.287 310.23 200.414 312.167 198.2C314.104 195.987 316.329 193.74 317.29 194.3C319.228 195.431 317.268 199.747 313.854 206.392C312.532 208.97 309.942 213.545 309.942 213.545" stroke="black" stroke-width="1.2" stroke-linecap="round" stroke-linejoin="round"/>
<path d="M308.263 212.141C308.263 212.141 316.649 199.596 319.574 198.547C323.051 197.302 321.861 201.099 318.056 208.377C314.252 215.655 312.097 220.005 312.097 220.005" fill="#FFB26E"/>
<path d="M308.867 211.408C308.867 211.408 316.661 203.051 318.174 201.729C320.44 199.758 321.463 200.624 321.463 200.624C321.463 200.624 322.178 199.055 321.463 198.683C320.749 198.311 320.44 198.035 319.574 198.543C318.708 199.051 314.742 202.495 313.968 203.88C313.195 205.265 308.867 211.408 308.867 211.408Z" fill="white"/>
<path d="M308.263 212.141C308.263 212.141 316.649 199.596 319.574 198.547C323.051 197.302 321.861 201.099 318.056 208.377C314.252 215.655 312.097 220.005 312.097 220.005" stroke="black" stroke-width="1.2" stroke-linecap="round" stroke-linejoin="round"/>
<path d="M295.128 209.158C295.128 209.158 301.854 213.084 304.705 216.2Z" fill="#FFB26E"/>
<path d="M295.128 209.158C295.128 209.158 301.854 213.084 304.705 216.2" stroke="black" stroke-width="1.2" stroke-linecap="round" stroke-linejoin="round"/>
<path d="M204.017 149.549L202.986 157.84C202.986 157.84 208.768 162.819 213.965 158.985C217.338 156.426 220.261 153.323 222.614 149.803C222.614 149.803 212.886 155.567 208.363 153.35C203.84 151.133 204.017 149.549 204.017 149.549Z" fill="black"/>
</svg>
